<?xml version="1.0" encoding="utf-8"?>
<!-- Generator: Adobe Illustrator 18.0.0, SVG Export Plug-In . SVG Version: 6.00 Build 0)  -->
<!DOCTYPE svg PUBLIC "-//W3C//DTD SVG 1.1//EN" "http://www.w3.org/Graphics/SVG/1.1/DTD/svg11.dtd">
<svg version="1.1" id="Layer_1" xmlns="http://www.w3.org/2000/svg" xmlns:xlink="http://www.w3.org/1999/xlink" x="0px" y="0px"
	 viewBox="500 350 300 300" style="enable-background:new 0 0 1300 1000;" xml:space="preserve">
<g >
	<path style="fill-rule:evenodd;clip-rule:evenodd;fill:#F47D37;" d="M626.52,607.27l0.09-0.34L626.52,607.27z M650.92,435.04
		c0.79,0,0.91,0.06,1.08-0.62C651.39,434.07,650.99,434.24,650.92,435.04L650.92,435.04z M648,434.42c0.18,0.68,0.31,0.62,1.08,0.62
		C648.96,433.78,648.02,434.39,648,434.42L648,434.42z M698.04,504.24c0.16-0.7,0.31-0.95,0.31-1.86c-0.56,0-1.07,0.07-1.32,1.03
		C696.72,504.62,697.97,504.25,698.04,504.24L698.04,504.24z M601.96,504.24c0,0,1.34,0.42,1.01-0.83c-0.09-0.35-0.21-0.51-0.4-0.71
		c-0.35-0.39-0.2-0.32-0.92-0.32C601.65,503.29,601.8,503.53,601.96,504.24L601.96,504.24z M710.71,566.49
		c0,0.66,2.01,1.5,2.01-0.15C712.18,566.05,710.71,565.66,710.71,566.49L710.71,566.49z M587.28,566.34c0,1.65,2.01,0.82,2.01,0.15
		C589.29,565.61,587.67,566.1,587.28,566.34L587.28,566.34z M699.28,507.17c0,0.69,0.85,0.78,1.39,0.78c0.49,0,0.44-0.29,0.62-0.62
		C700.6,506.61,699.28,506.13,699.28,507.17L699.28,507.17z M598.72,507.33c0.29,0.54,0.07,0.62,0.93,0.62
		c1.83,0,1.19-2.58-0.86-0.7C598.78,507.27,598.75,507.3,598.72,507.33L598.72,507.33z M572.3,548.57c0,0.91,1.86,0.99,1.86-0.78
		C572.98,547.18,572.3,548.02,572.3,548.57L572.3,548.57z M725.84,547.8c0,1.87,1.86,1.5,1.86,0.93
		C727.7,547.77,726.78,547.23,725.84,547.8L725.84,547.8z M700.66,455.27c0,1.52,1.95-0.03,1.79-0.89
		C702.2,453.01,700.66,454.94,700.66,455.27L700.66,455.27z M598.72,455.88c1.62,0-0.25-2.01-0.62-2.01c-0.87,0-0.56,0.95-0.03,1.58
		C598.26,455.69,598.37,455.88,598.72,455.88L598.72,455.88z M626.99,392.24c0.22,0.44,0.08,0.49,1.23,0.79
		c0.81,0.21,0.88,0.2,1.23-0.48c-0.55-0.82-1.45-0.95-2.05-0.66l-0.35,0.28C627.04,392.18,627.01,392.22,626.99,392.24
		L626.99,392.24z M670.55,392.55c0.34,0.63,0.73,0.86,1.96,0.27c0.57-0.29,0.2,0.02,0.51-0.57c-0.02-0.02-0.06-0.1-0.07-0.08
		c-0.03,0.07,0.01-0.38-1.16-0.38C671.1,391.78,670.82,392.14,670.55,392.55L670.55,392.55z M568.75,424.53v0.76
		c0.72,0.39,2,0.86,2.62,0C570.9,424.59,569.53,424.23,568.75,424.53L568.75,424.53z M728.63,425.3c0.64,0.88,1.95,0.37,2.62,0
		v-0.76c-0.8-0.21-0.31-0.26-1.7,0.14C728.93,424.86,728.94,424.82,728.63,425.3L728.63,425.3z M683.99,512.43
		c0.6-1.08-0.64-3.7-2.01-4.02c0.11,0.44,0.25,0.52,0.49,0.9C683.76,511.3,683.04,511.79,683.99,512.43L683.99,512.43z
		 M615.86,511.65c0,1.02-0.06,0.34,0.15,0.78c0.82-0.54,0.44-1.38,1.46-3.03c0.24-0.41,0.43-0.53,0.55-0.99
		c-0.74,0.17-1.05,0.61-1.42,1.2C616.28,510.13,615.86,510.87,615.86,511.65L615.86,511.65z M617.87,595.84
		c0,1.6,2.16-0.14,2.16-1.4c0-0.47-0.5-0.97-1.39,0.31C618.4,595.1,617.87,595.47,617.87,595.84L617.87,595.84z M679.97,594.44
		c0,1.25,2.16,3,2.16,1.4c0-0.16-1.1-1.86-1.7-1.86C680.07,593.99,679.97,594.1,679.97,594.44L679.97,594.44z M725.38,509.95
		c0.02,0.76-0.15,0.5,0.33,0.75c0.48,0.25,1.7,0.2,2.27-0.17c0.45-0.29,0.25,0.12,0.34-0.45c0.12-0.88-0.84-0.54-1.56-0.46
		C725.81,509.74,726.07,509.79,725.38,509.95L725.38,509.95z M571.69,555.53c0,0.28,0.35,0.82,0.51,1.02
		c0.67,0.85,2.77,0.8,1.23-0.75c-0.59-0.59-0.58-0.89-1.59-0.89C571.74,555.32,571.69,555.2,571.69,555.53L571.69,555.53z
		 M573.23,510.88c0.24,0,0.83-0.08,0.95-0.12c0.6-0.22,0.43-0.08,0.44-0.81c-0.47-0.1-2.06-0.62-2.6-0.43
		c-0.34,0.12-0.31,0-0.34,0.44c-0.05,0.67,0.03,0.33,0.24,0.51C572.11,510.63,572.91,510.88,573.23,510.88L573.23,510.88z
		 M726.47,557.07c0.68,0,0.92,0.01,1.34-0.52c0.79-0.98,0.46-1.2,0.36-1.64c-1.01,0-0.93,0.22-1.51,0.81
		C726.44,555.92,725.35,557.07,726.47,557.07L726.47,557.07z M647.84,447.08c0.72,1.09,3.59,1.09,4.32,0
		c-0.5-0.67-1.31-0.23-2.16-0.23C649.14,446.85,648.33,446.41,647.84,447.08L647.84,447.08z M652.47,431.48
		c0,1.97,2.32,0.3,2.32-1.08c0-0.46-0.67-1.19-1.63,0.06C652.91,430.77,652.47,431.18,652.47,431.48L652.47,431.48z M640.73,596.15
		c0,1.64,2.94,0.12,2.94-0.93C643.67,593.73,640.73,595.82,640.73,596.15L640.73,596.15z M645.21,430.4c0,0.82,0.33,1.09,0.89,1.59
		c0.32,0.3,1.43,0.93,1.43-0.51c0-0.13-0.87-1.69-1.69-1.69C645.47,429.79,645.21,430.04,645.21,430.4L645.21,430.4z M695.73,452.33
		c0,0.07,0.29,1,0.33,1.07c0.17,0.33,0.35,0.47,0.91,0.47c0.8,0,0.53-0.86,0.49-1.4c-0.08-0.99,0.08-1.53-0.8-1.53
		C696.11,450.95,695.73,451.89,695.73,452.33L695.73,452.33z M603.04,453.87c0.56,0,0.73-0.14,0.92-0.47
		c0.61-1.15,0.17-2.46-0.76-2.46c-0.7,0-0.58,0.84-0.63,1.53C602.51,453.02,602.25,453.87,603.04,453.87L603.04,453.87z
		 M613.39,510.72c0,1.18,1,0.83,1.35,0.12c0.59-1.17,0.46-2.51,1.83-3.44c0.64-0.43,1.43-0.54,1.77-1.01
		C615.74,505.02,613.39,508.23,613.39,510.72L613.39,510.72z M681.67,506.87c1.59,0.03,2.37,1.09,2.93,2.16
		c0.29,0.56,0.36,1.21,0.66,1.82c0.93,1.84,2.36-0.21,0.36-3.15C684.47,506,681.78,505.44,681.67,506.87L681.67,506.87z
		 M619.1,489.1c1.17-0.43,2.61-5.62,2.77-6.8c0.12-0.84,0.11-1.21,0.16-2.16v-2.15c-0.05-1.55,0-1.74-0.34-3.22
		c-0.12-0.55-0.04-0.51-0.44-0.81c0,4.74,0.12,9.29-1.73,13.55C619.29,488.06,618.93,488.67,619.1,489.1L619.1,489.1z M680.9,489.1
		c0.17-0.42-0.12-0.9-0.38-1.48c-1.91-4.48-1.78-8.6-1.78-13.67c-0.96,0.7-0.9,4.75-0.79,6.04c0.08,0.94,0.05,1.46,0.17,2.3
		c0.18,1.31,0.55,2.65,1.01,3.77l1.4,2.77C680.76,489.09,680.54,488.97,680.9,489.1L680.9,489.1z M651.55,485.71l0.45,8.51
		c0.14,1.51,0.31,6.01,2.02,6.01c0.25,0,0.87-0.35,1.08-0.46v-0.93c-1.11-0.27-1.54-1.3-1.83-2.35c-0.28-1.05-0.5-2.61-0.61-3.7
		c-0.13-1.22-0.34-2.64-0.34-3.83c0-0.94-0.16-1.13-0.16-2.01c0-0.24,0.04-0.89,0.01-1.09c-0.1-0.73,0.22-0.24-0.47-0.61
		C651.6,485.43,651.55,485.4,651.55,485.71L651.55,485.71z M644.28,498.98c1.93,1.3,2.52,0.57,3.05-2.04
		c0.22-1.07,0.76-7.81-0.33-7.28c-0.41,0.19-0.21,0.04-0.25,0.65c-0.17,2.35-0.45,5.45-1.64,7.49
		C644.77,498.37,644.62,498.34,644.28,498.98L644.28,498.98z M644.28,567.42c1.31,0.31,3.96-0.47,5.72-0.47
		c1.75,0,4.41,0.78,5.71,0.47c-0.02-1-0.54-1.07-2.02-1.53c-1.38-0.44-6.02-0.44-7.39,0c-0.35,0.1-0.92,0.3-1.25,0.44
		C644.49,566.57,644.3,566.62,644.28,567.42L644.28,567.42z M648.3,531.89c0,0.83-0.24,2-0.09,2.56c0.44,1.71,3,1.75,3.55,0.12
		l-0.06-5.93c-0.79,0-0.84,0.15-1.69,0.15c-0.87,0-0.92-0.15-1.7-0.15V531.89z M669.16,519.53c-0.06-0.64-0.16-0.55-0.61-0.79
		c-1.85-0.96-4.47-2.81-5.92-4.27c-1.21-1.21-2.21-2.56-3.08-4.04c-0.7-1.2-0.67-0.53-1.76-1.17c-2.36-1.39-0.39,2.16,0.68,3.5
		c1.3,1.59,4.58,4.18,6.46,5.12C665.97,518.4,668,519.53,669.16,519.53L669.16,519.53z M630.84,519.53c1.53,0,4.65-1.87,5.94-2.72
		c0.65-0.44,1.12-0.73,1.72-1.2c1.03-0.81,2.13-1.78,2.96-2.76c1.61-1.91,2.75-4.8,0.86-3.64c-2.15,1.31-0.62-0.69-2.33,2.02
		c-1.85,2.94-4.59,5.2-7.55,6.97C631.13,518.97,630.91,518.79,630.84,519.53L630.84,519.53z M656.64,496.2
		c0.7,0.34,3.61-1.03,4.32-1.39l2.99-1.49c1.77-0.83,3.42-1.78,5.25-2.32c2.22-0.64,4.77-1.77,7.81-0.82
		c0.62,0.19,1.14,0.54,1.87,0.6c-0.2-0.76-0.61-0.6-2.06-1.34c-2.78-1.43-5.82-0.28-8.23,0.32c-2.55,0.63-5.92,2.57-8.24,3.97
		c-0.66,0.4-1.2,0.71-1.97,1.12C657.74,495.21,656.79,495.67,656.64,496.2L656.64,496.2z M621.11,490.79
		c0.72-0.06,1.09-0.34,1.75-0.56c1.65-0.55,3.96-0.46,5.6,0.01c0.4,0.11,0.82,0.22,1.18,0.36c0.44,0.15,0.65,0.27,1.14,0.41
		c2,0.58,3.32,1.46,5.15,2.26c1.42,0.63,6.34,3.43,7.41,2.93c-0.19-0.72-3-2.03-3.62-2.4c-4.11-2.48-11.96-6.65-16.46-4.4
		C621.82,490.13,621.32,490.06,621.11,490.79L621.11,490.79z M659.89,526.17c0,1.57-0.59,4.29-1.86,4.63l1.98,2.97
		c1.16,1.79,2.39,4.61,3.27,6.61c0.26,0.56,0.51,1.09,0.78,1.7c0.71,1.63,2.6,2.51,1.67-0.9c-0.2-0.75-0.52-1.67-0.76-2.48
		c-0.47-1.52-4.29-13.43-5.38-14.24C659.71,525.05,659.89,525.44,659.89,526.17L659.89,526.17z M634.55,543.47
		c0.69,0,1.04-0.61,1.35-1.29l2.3-5.1c1.15-2.28,1.34-2.68,2.71-4.7c0.32-0.47,0.92-1.08,1.05-1.58c-1.24-0.33-1.86-3.05-1.86-4.63
		c0-0.73,0.17-1.12,0.32-1.7c-0.62,0.45-2.56,5.68-2.96,6.78l-3.16,9.81C634.11,541.77,633.51,543.47,634.55,543.47L634.55,543.47z
		 M637.49,544.4l0.15,4.48h0.46c0-0.66,0.12-1.32,0.16-2.16c0.02-0.59,0.1-1.56,0.17-2.29c0.25-2.52,0.8-5.19,2.94-6.63
		c4.19-2.83,4.15-0.65,7.7-0.65c4.5,0,4.17-0.78,6.18-0.78c2.12,0,4.62,1.98,5.45,4.13c0.74,1.93,0.88,4.08,1.03,6.08l0.16,2.3h0.46
		c0-4.15,1.08-8-2.95-12.19c-2.25-2.34-4.14-1.65-6.94-0.94c-2.34,0.6-2.56,0.58-4.82,0.03c-1.85-0.45-2.89-1.07-4.77-0.52
		c-1.01,0.3-1.19,0.42-1.89,1.06l-0.69,0.69c-0.75,0.84-1.22,1.57-1.72,2.59C637.93,540.91,637.49,542.46,637.49,544.4L637.49,544.4
		z M618.95,507.63c0,2.26,1.53,3.52,3.29,4.59c5.72,3.48,14.91,0.39,16.48-1.96c-0.49-0.41-1.16,0.23-2.87,0.53
		c-3.29,0.58-9.06,0.23-11.61-1.05c-1-0.5-1.92-0.89-2.86-1.46c-0.52-0.32-0.84-0.48-1.32-0.86
		C619.68,507.12,618.95,506.72,618.95,507.63L618.95,507.63z M668.54,511.04c-1.59,0-2.65,0.03-4.26-0.22
		c-0.45-0.06-0.86-0.16-1.26-0.28c-1.37-0.37-1.01-0.63-1.73-0.28c1.64,2.44,12.95,6.42,18.66,0.28c1.27-1.39,1.69-4.41,0.07-3.18
		C676.73,509.83,672.97,511.04,668.54,511.04L668.54,511.04z M637.34,552.74c0,4.39,1.81,9.41,5.4,11.28
		c3.56,1.85,4.84,1.07,7.27,1.07c2.39,0,3.65,0.76,7.16-1.02c3.74-1.91,5.51-7.1,5.51-11.18c0-0.82-0.26-1.44-0.32-2.16
		c-0.82,0.6-0.72,2.85-1.2,4.67c-0.83,3.21-1.85,5.98-5.25,6.79c-4.2,1.01-7.46,0.99-11.68,0.03c-1.58-0.36-2.8-1.05-3.64-2.39
		c-0.7-1.12-1.32-2.87-1.7-4.31c-0.21-0.82-0.39-1.5-0.47-2.47c-0.06-0.91-0.19-1.91-0.76-2.33
		C637.59,551.36,637.34,552.09,637.34,552.74L637.34,552.74z M662.05,506.87c0-0.57,0.01-0.93,0.65-1.51
		c0.32-0.29,0.75-0.55,1.2-0.65c0.02,0.83,0.26,1.74,0.56,2.37c0.74,1.53,0.76,1.01,1.29,1.8c-0.52-0.01-2.89-0.56-3.29-0.87
		c-0.39-0.29-0.11,0.21-0.33-0.45C662.02,507.2,662.05,507.26,662.05,506.87L662.05,506.87z M668.54,505.32
		c0-0.31,0.42-0.93,1.08-0.93c0.61,0,0.56,0.2,0.91,0.34c0.5,0.19,2.8-0.44,2.8,1.21c0,1.62-1.9,3.09-3.56,3.09
		c-1.58,0-3.34-0.19-3.75-2.28c-0.11-0.58,0.05-0.62,0.2-1.27H667c0.05,2.54,3.7,2.89,3.7,0.32c-0.31,0.2-0.62,0.61-1.08,0.61
		C668.89,506.4,668.54,506.04,668.54,505.32L668.54,505.32z M674.41,503.62c0.21,0.05,2.47,1.1,2.47,2.16
		c0,0.83-0.52,1.53-1.06,1.88c-0.61,0.4-1.53,0.43-2.18,0.74C674.07,506.51,674.8,506.65,674.41,503.62L674.41,503.62z
		 M658.65,509.03c1.06-0.09,0.86-1.14,1.69-1.24c0.78,0.21,0.87,0.66,1.5,0.98c1.24,0.62,5.03,1.18,6.54,1.18
		c3.24,0,8.76-1.32,11.14-3.22c0.39-0.32,0.3-0.08,0.45-0.63c-0.37-0.55-0.31-0.34-0.86-0.69c-2.15-1.38-4.01-3.63-7.64-3.63
		c-4.85,0-9.4,1.6-12.21,5.56C658.66,508.18,658.52,508.4,658.65,509.03L658.65,509.03z M634.25,508.87
		c0.24-0.37,0.36-0.4,0.65-0.72c0.31-0.35,0.39-0.56,0.58-0.97c0.33-0.65,0.59-1.52,0.61-2.47c0.45,0.1,0.8,0.32,1.11,0.58
		c0.71,0.59,0.74,0.97,0.74,1.58c0,1.12-0.36,1.22-1.3,1.48C635.99,508.53,634.9,508.86,634.25,508.87L634.25,508.87z
		 M630.38,505.16c0-0.5,0.67-0.93,1.23-0.93c1.21,0,0.88,0.79,1.37,1.1c0.48,0.31,1.57-0.06,1.57,1.06c0,1.34-2.06,2.63-3.4,2.63
		c-1.54,0-3.01-0.06-3.54-1.73c-0.16-0.54-0.14-1.14,0.09-1.71c0.22-0.56,0.54-0.87,1.29-0.88c0,3.61,2.94,3.23,3.67,1.93
		C633.45,505.23,630.38,507.64,630.38,505.16L630.38,505.16z M625.44,504.39c0,2.33,0.72,3.13,0.93,4.02
		c-0.76-0.37-3.24-0.44-3.24-2.62c0-1.06,2.25-2.11,2.47-2.16C625.54,504.24,625.44,503.99,625.44,504.39L625.44,504.39z
		 M620.03,506.09c0.34,1.25,3.98,2.43,4.97,2.76c4.13,1.38,7.15,1.4,11.22,0.45c0.6-0.14,1.37-0.25,1.94-0.54
		c0.89-0.44,1.3-1.66,2.29-0.38c0.33,0.42,0.21,0.58,0.9,0.64c0.38-1.75-3.32-4.47-4.6-5.28c-1.3-0.84-1.94-1.03-3.64-1.46
		c-4.63-1.16-7.72-0.56-11.26,2.38C621.17,505.23,620.28,505.73,620.03,506.09L620.03,506.09z M627.45,546.1h0.93
		c0.36-1.5-0.37-2.25-1.14-4.58c-0.48-1.46-0.84-2.63-1.2-4.19c-0.66-2.76-0.61-8.03-1.49-9.18c-0.56-0.74-1.88-1.91-2.61-2.64
		c-0.51-0.51-0.88-0.71-1.4-1.23c-1.59-1.6-5.42-5.44-5.91-7.53h-0.46c0,3.84,2.92,8.12,4.94,10.96l2.16,3.25
		c1.24,2.12,2.5,7.12,3.6,9.68C625.47,542.04,626.81,545.14,627.45,546.1L627.45,546.1z M671.47,545.48c0,0.36,0.05,0.18,0.15,0.62
		h0.93c0.63-0.95,1.29-2.46,1.72-3.54c0.58-1.44,0.97-2,1.58-3.82c0.58-1.74,1.97-6.21,2.88-7.77l2.1-3.16c1.97-2.86,5-7.05,5-11.06
		h-0.46c-0.2,0.9-1.45,2.55-1.99,3.26c-0.79,1.06-1.6,1.95-2.53,2.88c-1.34,1.34-4.68,4.31-5.4,5.26c-0.88,1.15-0.82,6.34-1.49,9.18
		c-0.36,1.52-0.7,2.66-1.16,4.08C672.53,542.22,671.47,544.83,671.47,545.48L671.47,545.48z M650.92,437.05
		c0.61,0,0.63-0.05,1.08-0.16c0.14,1.7,0.64,0.99,0,3.71h-0.31c0-0.91,0-1.2-0.21-1.95L650.92,437.05z M648.3,440.6H648
		c-0.63-2.71-0.15-1.89,0-3.71c0.45,0.11,0.47,0.16,1.08,0.16C648.74,438.45,648.3,438.26,648.3,440.6L648.3,440.6z M642.9,436.42
		c0,1.18,0.44,2.41,0.74,3.26c0.45,1.24,4.12,6.01,6.2,6.01c2.15,0,3.34-1.91,4.83-3.52c0.63-0.68,1.31-1.48,1.64-2.38
		c0.79-2.1,1.01-3.1,0.52-5.27c-0.7-3.09-2.13-0.5-2.49-0.08c-0.38,0.46-1.18,0.9-1.71,1.21c-2.53,1.54-4.17,0.78-6.31-0.65
		c-1-0.66-2.23-3.42-3-1.08C643.18,434.36,642.9,435.82,642.9,436.42L642.9,436.42z M650.31,557.52c0.78,0,0.69-0.13,1.39-0.15
		c-0.08,1.02-0.72,1.1-1.12,0.68C650.2,557.66,650.4,557.72,650.31,557.52L650.31,557.52z M648.3,557.37
		c0.69,0.02,0.61,0.15,1.39,0.15C649.43,558.5,648.48,558.7,648.3,557.37L648.3,557.37z M653.25,557.37
		c-0.06,0.66,0.02,0.29-0.32,0.78c-0.54-0.14-0.47-0.16-0.61-0.78H653.25z M646.76,557.37h0.92c-0.13,0.61-0.07,0.63-0.61,0.78
		C646.73,557.66,646.81,558.03,646.76,557.37L646.76,557.37z M653.25,557.37 M646.76,557.37 M654.79,557.69
		c-0.63-0.06-0.63-0.08-0.78-0.62c0.31-0.14,0.71-0.22,1.08-0.31C654.99,557.23,654.91,557.21,654.79,557.69L654.79,557.69z
		 M644.91,556.76c0.37,0.08,0.78,0.16,1.08,0.31c-0.14,0.54-0.14,0.56-0.78,0.62C645.16,557.45,645,556.97,644.91,556.76
		L644.91,556.76z M653.55,541.61c1.41,0,1.1-0.06,1.57,1.21c0.7,1.94,0.42,1.45,0.29,3.12c-0.94,0-1.22-0.01-1.86-0.32
		C653.91,544.1,653.55,543.47,653.55,541.61L653.55,541.61z M646.29,544.87c0,0.41,0.07,0.42,0.15,0.76
		c-0.63,0.31-0.91,0.32-1.86,0.32c-0.13-1.67-0.42-1.18,0.29-3.12c0.47-1.27,0.16-1.21,1.57-1.21
		C646.45,542.9,646.29,543.55,646.29,544.87L646.29,544.87z M650.31,541.31c1.54-0.36,1.4-0.03,2.62,0c0,0.72,0.15,0.89,0.15,2.01
		c0,0.94-0.15,1.13-0.15,2.01c-1.11,0.25-1.3,0.15-2.62,0.15l-0.11-2.94C650.2,542.2,650.31,541.92,650.31,541.31L650.31,541.31z
		 M649.69,543.62v1.86c-1.33,0-1.51,0.1-2.62-0.15l-0.15-2.32c0-0.86,0.15-0.92,0.15-1.7c1.22-0.03,1.08-0.36,2.62,0
		c0,0.54,0.09,0.86,0.1,1.12C649.82,542.93,649.69,542.94,649.69,543.62L649.69,543.62z M655.26,541.78
		c1.13,0.09,3.24,1.53,3.24,3.4c0,0.48-0.36,1.66-0.53,2.1c-0.19,0.5-0.6,1.45-1.17,1.45C655.75,548.72,657.48,545.99,655.26,541.78
		L655.26,541.78z M643.2,548.72c-0.67,0-2.94-3.58-0.66-5.76c0.48-0.45,1.43-1.12,2.21-1.18c-0.85,1.58-1.25,3.32-1.24,5.25
		C643.52,548.52,643.83,548.72,643.2,548.72L643.2,548.72z M639.34,547.34c0,2.84,0.06,9.17,2.38,10.9
		c0.86,0.64,2.36,1.25,3.59,1.52c3.42,0.73,5.86,0.69,9.27,0.02c1.27-0.24,2.85-0.89,3.71-1.54c1.6-1.19,1.77-3.78,2.08-5.63
		c0.53-3.14,0.55-8.06-0.89-10.89c-0.5-0.98-1.22-1.81-2.21-2.26c-0.55-0.25-1.11-0.37-1.85-0.47l-10.7-0.02
		c-1.31,0.18-2.32,0.45-3.25,1.39C639.9,541.92,639.34,545.16,639.34,547.34L639.34,547.34z M629.3,601.4
		c0-0.94,0.73-2.08,1.08-2.77c1.7-3.45,1.07-3.81,4.44-7.31c0.34-0.35,0.6-0.56,0.93-0.92c1.17-1.26,1.75-1.72,3.28-2.74
		c4.41-2.93,9.7-1.6,14.32-3.14l4.13-1.89c1.69-1.02,3.11-2.13,4.26-3.62c0.31-0.4,0.5-0.59,0.81-1.05l2.28-3.74
		c0.13,0.59,0.18,1.23,0.32,1.85c0.43,2.08,1.32,4.55,2.27,6.37l1.52,2.8c0.28,0.5,0.71,1.05,0.83,1.49
		c-1.33,1.99-7.1,4.6-9.64,5.34c-1.31,0.39-6.19,1.62-7.16,2.11c-1.06,0.55-0.56,2.23-4.64,4.78c-2.17,1.36-8.69,3.19-11.15,3.83
		c-1.1,0.28-2.1,0.34-3.39,0.48c-1.04,0.11-1.94,0.82-2.9,0.4C630.17,603.35,629.3,602.38,629.3,601.4L629.3,601.4z M631.46,589.66
		c-0.93,0-2.17-0.13-2.94-0.31c0.14-0.53,1.98-2.88,2.84-4.59l1.85-3.71c0.54-1.33,1.68-1.79,3.57-2.14
		c1.84-0.34,1.54-0.27,2.96,0.32c3.66,1.48,6.87,1.5,10.73,1.17c0.85-0.07,1.44-0.25,2.16-0.32c-0.75,1.03-5.89,3.09-7.84,3.58
		c-4.02,1.01-3.95,0.15-8.09,3.5c-2.51,2.03-1.71,2.26-3.37,2.36C632.61,589.55,632.35,589.66,631.46,589.66L631.46,589.66z
		 M667.92,573.45c0-2.73,0.13-2.22,1.05-4.51c0.43-1.04,0.98-2.02,1.61-2.87c1-1.35,3.2-4.06,5.06-4.06c1.47,0,1.11,0.28,2.01,2.32
		c1.35,3.04,2.21,4.84,2.32,8.8c0.12,4.91,1.65,10.12,5.13,13.55c2.46,2.43,2.75,2.29,2.74,8.38c0,2.33,0.68,9.46-0.05,10.44
		c-0.45,0.6-2.72,0.84-3.65,0.84c-1.17,0-1.88-1.78-2.89-3.14c-2.68-3.55-5.01-5.96-5.31-10.14c-0.38-5.13-2.76-5.06-5.24-10.05
		C669.25,580.11,667.92,576.81,667.92,573.45L667.92,573.45z M615.86,606.35c-0.9,0-3.09-0.24-3.58-0.75
		c-0.82-0.84-0.28-4.1-0.28-4.96l0.15-5.42c0-6.15,0.21-6.04,2.66-8.45c0.72-0.71,1.12-1.3,1.72-2.14c0.62-0.85,0.94-1.27,1.44-2.27
		c0.38-0.76,0.74-1.83,1.01-2.69c0.5-1.69,0.98-4.2,1.04-6.37c0.13-4.13,0.85-5.67,2.26-8.85c0.95-2.11,0.58-2.42,2.06-2.42
		c1.84,0,4,2.65,4.99,3.97c1.02,1.36,2.74,4.65,2.74,6.38c0,4.23-0.85,6.75-2.73,10.56c-1.43,2.89-4.37,5.92-4.86,7.49
		c-1.13,3.57,0.75,3.57-3.03,9.17c-1.11,1.64-2.56,3.36-3.9,5.37C617.2,605.52,616.77,606.35,615.86,606.35L615.86,606.35z
		 M681.36,571.44c1.15,0.84,4.02,5.24,4.02,7.1c0,1.48-0.01,2.02-0.75,3.26c-0.32,0.54-0.01,0.44-0.63,0.6l-1.06-2.34
		C681.9,577.35,681.36,574.67,681.36,571.44L681.36,571.44z M616.01,582.4c-1.15-0.31-1.39-2.83-1.39-3.87
		c0-1.56,1.71-4.34,2.73-5.61c0.32-0.38,0.97-1.26,1.29-1.49C618.64,578.37,616.28,581.28,616.01,582.4L616.01,582.4z
		 M688.01,551.35c0-3.47,0.01-9.74,3.36-11.79c0.57-0.35,0.74-0.28,1.25,0.06c1.06,0.69,1.93,3.9,2.21,5.05
		c1.41,5.74,1.27,8.76,0.56,14.69c-0.14,1.19-0.79,4.39-1.21,5.27c-1.62-0.86-3.53-3.64-4.32-5.41
		C689.02,557.33,688.01,554.06,688.01,551.35L688.01,551.35z M605.82,564.63c-0.43-0.89-1.07-4.08-1.21-5.27
		c-0.88-7.29-0.87-11.72,1.92-18.58c0.29-0.71,0.15-0.66,0.76-1.09c1.62-1.13,3.1,1.68,3.63,2.86c1.08,2.44,1.08,5.93,1.08,8.81
		C612,555.76,609.34,562.78,605.82,564.63L605.82,564.63z M698.19,546.41l0.9,1.26c1.74,2.63,4.05,4.88,6.67,6.62
		c0.43,0.29,1.11,0.53,1.4,0.92c-0.38,0.51-5.32,3.41-5.72,3.41c-1.33,0-2.72-3.67-3-4.73L698.19,546.41z M598.72,558.62
		c-0.69,0-5.54-2.96-5.86-3.41c0.3-0.41,0.79-0.52,1.3-0.86c3-1.96,5.16-4.27,7.13-7.24l0.53-0.7c0,1.22-0.15,2.16-0.15,3.55
		c0,2.84,0.28,4.94-1.85,7.73C599.64,557.89,598.93,558.62,598.72,558.62L598.72,558.62z M685.53,544.55c0,3.8,0.01,5.95,0.79,9.72
		c0.41,1.97,1.1,4.46,1.99,6.2l1.49,2.53c0.27,0.4,0.57,0.8,0.88,1.13c0.2,0.22,0.3,0.33,0.52,0.56l0.15,0.16
		c0.8,0.8,1.68,1.56,2.69,2.09c1.65,0.86,2.66,0.93,4.47,0.93c2,0,3.08-1.31,4.26-2.22c3.25-2.52,2.64-3.46,9.87-1.09
		c0.71,0.23,1.19,0.33,1.88,0.6c1.78,0.71,2.52,1.7,3.89,3.06c0.42,0.43,0.95,0.73,1.11,1.36c-1.03,1.41-4.51,1.63-6.02,1.69
		c-7,0.3-13.91,7.66-23.35,4.51c-5.7-1.91-9.35-7.45-11.46-12.8c-0.45-1.15-0.81-2.38-1.12-3.66c-0.18-0.7-0.38-1.39-0.49-1.99
		c-0.53-2.91-0.39-4.5,0.63-7.62c0.8-2.43,1.71-4.49,3.17-6.57c1.04-1.5,2.35-3.49,3.99-4.21c0.72-0.32,0.56-0.15,1.29-0.09
		c-0.07,0.78-0.33,1.91-0.43,2.66C685.59,542.59,685.53,543.42,685.53,544.55L685.53,544.55z M613.85,538.84
		c0.68-0.06,0.52-0.21,1.18,0.05c3.04,1.19,6.22,7.71,7.22,10.7c0.42,1.26,1.02,3.93,1.02,5.47c0,0.74-0.19,1.33-0.31,2.01
		c-0.12,0.73-0.3,1.33-0.46,2.01c-1.15,4.64-2.64,7.82-5.5,11.49c-0.45,0.57-0.74,0.8-1.17,1.31c-2.46,2.97-6.86,4.65-10.94,4.65
		c-2.44,0-4.66-0.58-6.47-1.25c-3.63-1.35-8.22-3.84-11.76-3.99c-1.51-0.06-5.11-0.24-6.18-1.7c0.16-0.6,1.68-1.92,2.2-2.44
		c0.96-0.96,1.4-1.42,2.8-1.98c1.13-0.46,2.4-0.75,3.51-1.12c2.26-0.76,4.6-1.42,6.49,0.11c0.3,0.23,0.56,0.43,0.86,0.68
		c2.7,2.27,2.69,3.04,6.38,3.04c1.44,0,3.25-0.87,4.4-1.63l1.54-1.39c1.26-1.27,2.12-2.71,2.98-4.28c0.88-1.63,1.62-4.31,2.02-6.17
		c0.8-3.78,0.81-6.04,0.81-9.85C614.47,542.34,614.1,540.73,613.85,538.84L613.85,538.84z M652.63,526.33
		c0.55-0.83,0.93-0.69,0.93-2.16h0.15c0,1.73,0.58,1.01,1.73,1.36c1.66,0.51,2.42,2.26,0.73,2.66
		C657.33,525.8,652.73,526.33,652.63,526.33L652.63,526.33z M643.82,528.18c-1.61-0.38-1.03-2.01,0.62-2.62
		c1.19-0.43,1.85,0.4,1.85-1.4h0.15c0,1.47,0.38,1.34,0.93,2.16C647.25,526.33,642.7,525.84,643.82,528.18L643.82,528.18z
		 M707.92,533.44c0-2.8,0.3-5.47,1.5-7.93c0.83-1.72,2.68-4.41,4.83-4.58c0,3.11-0.43,5.8-1.16,8.26c-0.18,0.63-0.05,0.61-0.99,1.32
		L707.92,533.44z M585.74,520.92c2.15,0.17,4.01,2.87,4.84,4.58c1.19,2.48,1.49,5.14,1.49,7.93c-0.49-0.33-0.86-0.62-1.36-0.96
		c-0.5-0.34-0.9-0.59-1.4-0.93c-1.23-0.84-2.11-1.34-2.42-2.37C586.17,526.72,585.74,524.03,585.74,520.92L585.74,520.92z
		 M723.07,516.13c0.73-0.06,1.18-0.15,2.16-0.15c0.21,0.83,1.68,2.13,2.41,2.69c2.46,1.93,2.87,2.4,6.11,3.47
		c0.31,0.1,0.49,0.15,0.82,0.27c0.47,0.16,0.4,0.1,0.7,0.38c-2.34,0.19-6.27-0.76-7.87-1.7c-1.02-0.6-1.95-1.27-3.03-1.92
		C722.72,518.17,722.53,518.45,723.07,516.13L723.07,516.13z M564.73,522.78c0.53-0.47,2.3-0.86,3.03-1.15
		c1.37-0.54,2.7-1.44,3.86-2.32c0.87-0.65,2.93-2.47,3.15-3.33c0.98,0,1.43,0.09,2.16,0.15c0.54,2.33,0.35,2.04-1.3,3.03
		c-3.55,2.13-2.39,2.01-6.73,3.15C567.02,522.81,566.58,522.93,564.73,522.78L564.73,522.78z M692.33,511.04
		c0-0.68,0.22-1.1,0.46-1.55c0.83,0.31,0.75,1.86,5.41,1.86c0,3.12-0.42,8.02-1.06,10.98c-0.13,0.61-1.14,2.81-1.6,4.73
		c-0.3,1.27-0.23,2.2-2.28,2.2c-2.35,0-3.11-6.4-3.06-8.49c0.02-0.58,0.35-1.59,0.48-2.28l0.58-5.29c0.01-0.44-0.04-0.97,0-1.39
		c0.04-0.57,0.18-0.73,0.31-1.24c0.02,0.03,0.04,0.05,0.04,0.11l0.22,0.86c0.15,0.62,0.06,0.57,0.51,0.73
		C692.58,511.72,692.33,511.74,692.33,511.04L692.33,511.04z M607.68,512.27c0.67-0.24,0.31-0.45,0.72-1.59
		c0.01-0.03,0.02-0.08,0.04-0.11c0.1,0.44,0.24,0.66,0.3,1.1c0.08,0.66-0.02,2.29,0.21,4.11c0.09,0.73,0.2,1.73,0.36,2.58
		c0.5,2.84,0.65,1.34,0.37,5.02c-0.12,1.56-0.61,3.17-1.34,4.55c-1.21,2.32-3.25,1.14-3.59,0.39c-0.15-0.36-0.65-2.84-1.15-4.09
		c-0.29-0.69-0.57-1.12-0.73-1.9c-0.71-3.31-1.06-7.49-1.06-10.98c1.44,0,2.13,0.02,3.49-0.53c0.8-0.32,0.91-0.39,1.41-0.91
		c0.41-0.44-0.02-0.22,0.51-0.42C608.18,511.32,607.28,511.55,607.68,512.27L607.68,512.27z M721.37,517.68
		c0,1.73,2.51,2.95,4.4,4.1c1.17,0.72,1.47,0.88,2.89,1.29c0.99,0.3,2.43,0.7,3.53,0.8v0.31c-4.48,0-5.82-1.84-7.9,0.9
		c-0.51,0.67-0.76,2.27-0.88,3.29c-0.12,1.18-0.07,2.75-0.16,3.86c-0.35,4.19-1.78,8.95-4.2,12.17c-0.34,0.45-0.59,0.69-0.91,1.1
		c-0.32,0.42-0.64,0.79-1.08,1.08c-2.46-1.31-5.56-3.66-5.56-6.79c0-2.79,1.48-3.12,2.91-6.98c3.2-8.62,1.27-11.36,1.76-14.92
		c0.74-5.45-0.75-5.86,2.92-8.82c3.72-3.01,4.26-2.35,10.64-2.35c1.37,0,4.98,0.83,6.73,1.14c1.02,0.18,1.31,0.49,1.31,1.49
		c0,1.62-2.45,1.97-3.69,2.49c-0.68,0.29-1.49,0.62-2.2,0.89c-2.94,1.11-4.46,1.2-7.64,1.63c-1.02,0.13-1.78,0.21-2.23,0.86
		C721.71,515.6,721.37,516.96,721.37,517.68L721.37,517.68z M562.27,509.34c0-1,0.28-1.31,1.3-1.49c6.5-1.17,4.1-1.14,11.21-1.14
		c3.39,0,4.02,0.54,6.08,2.27c3.93,3.3,2.12,3.11,2.98,8.76c0.14,1,0.12,2.28-0.03,3.24c-0.65,4.32,1.2,11.7,3.37,15.04
		c0.85,1.32,1.36,1.8,1.36,3.9c0,2.44-1.96,4.26-3.67,5.44c-0.67,0.46-1.15,0.82-1.89,1.2c-0.41-0.28-0.68-0.57-1.01-0.99
		c-2.47-3.18-3.65-5.3-4.64-9.73c-0.25-1.13-0.45-2.27-0.53-3.49l-0.17-4c-0.09-0.93-0.37-2.56-0.81-3.2
		c-1.52-2.2-3.13-1.61-5.11-1.2c-1.1,0.22-1.58,0.21-2.87,0.21v-0.31c3.9-0.33,5.79-1.76,8.87-3.64c0.99-0.61,1.94-1.22,1.94-2.54
		c0-0.71-0.35-2.08-0.61-2.48c-0.86-1.24-4.46-0.73-7.52-1.75c-2.22-0.73-2.25-0.66-4.56-1.62
		C564.7,511.3,562.27,510.96,562.27,509.34L562.27,509.34z M721.67,506.25 M578.33,506.25 M705.61,531.73v2.47
		c0,3.94,2.03,8.92,3.9,10.93c2.41,2.58,6.41,4.82,10.16,4.82c0.37-1.36,3.79-3.53,5.56-4.02c2.12-0.59,6.25-1.14,8.51-1.22
		c0.67-0.03,0.86-0.19,1.3-0.07c0.85,0.26,1.79,2.61,1.79,3.15c0,0.56-7.65,11.43-13.59,11.43c-2.54,0-3.99-0.13-6.05-1.67
		c-1.62-1.2-0.07-1-2.89-1.75c-0.39-0.1-0.9-0.29-1.29-0.42c-4.62-1.54-8.22-3.76-11.17-7.67c-4.58-6.07-6.32-12.27-4.42-20.15
		c0.22-0.91,0.48-1.9,0.82-2.73c2.09-5.14,3.1-5.72,6.34-9.58c1.25-1.49,3.07-3.29,3.86-5.1c0.19-0.43,0.33-0.76,0.48-1.21
		c0.52-1.48-0.06-1.3,1.29-2.27c0.46-0.34,0.61-0.49,1.02-0.84l6.68-3.97c0.4-0.24,0.65-0.43,1.03-0.68
		c0.47-0.31,0.66-0.54,1.05-0.81c0,2.18,0.02,3.5-0.41,5.31c-0.15,0.67-0.34,1.67-0.65,2.13l-0.62,0.61
		c-0.02,0.02-0.05,0.05-0.08,0.08c-0.29,0.31-0.48,0.49-0.74,0.79c-2,2.22-1.87,3.95-3.05,5.45l-2.72,3
		c-0.47,0.6-0.87,1.07-1.3,1.63c-0.85,1.09-1.55,2.17-2.21,3.51c-0.69,1.39-1.23,2.38-1.75,3.97
		C706.02,528.14,705.61,530.1,705.61,531.73L705.61,531.73z M580.02,500.37c2.21,1.49,3.68,2.67,6.44,4.08
		c0.86,0.43,1.55,0.74,2.24,1.31c2.97,2.39,1.46,1.04,2.81,4.29c1.3,3.09,7.64,8.57,9.12,12.2l1.08,2.47
		c2.01,4.94,2.25,11.82,0.09,16.76c-1.41,3.22-3.83,7.12-6.54,9.37c-3.69,3.1-6.04,3.88-10.56,5.2c-1.24,0.36-0.65,1.02-3.75,2.57
		c-1.47,0.72-2.53,0.61-4.18,0.61c-5.95,0-13.59-10.87-13.59-11.43c0-0.68,0.6-1.68,0.9-2.19c0.7-1.19,0.65-0.98,2.04-0.9
		c3.12,0.19,2.66,0.11,5.83,0.66c2.21,0.39,3.01,0.48,4.99,1.5c0.91,0.47,3.13,2.12,3.4,3.09c3.75,0,7.64-2.21,10.08-4.74
		c1.92-1.98,3.98-7.06,3.98-11.01c0-5.29-0.21-6.58-2.57-11.32c-0.67-1.34-1.38-2.42-2.21-3.51l-3.96-4.54
		c-1.49-1.88-0.98-3.65-4.1-6.56C579.97,506.8,580.02,502.56,580.02,500.37L580.02,500.37z M721.67,506.25
		c0.05-0.58,0.23-0.89,0.4-1.46c0.18-0.6,0.24-0.85,0.44-1.42c0.71-2.14,1.61-4.82,3.99-5.6c0.89-0.29,0.86-0.09,1.66-0.02
		c0,0.91,0.12,1.12,0.16,1.86c0.06,0.96-0.43,4.88-0.62,5.71C725.06,505.32,723.91,505.73,721.67,506.25L721.67,506.25z
		 M578.33,506.25c-2.24-0.52-3.38-0.93-6.03-0.93l-0.62-5.56c0.02-0.82,0.16-1.05,0.16-2.01c2.17-0.18,3.2,0.36,4.53,2.72
		C576.78,501.21,578.26,505.39,578.33,506.25L578.33,506.25z M676.1,493.27c3.21,0,4.65,2.2,6.69,4.59
		c0.76,0.89,1.26,1.19-0.01,3.31c-0.49,0.82-0.63,1.36-1.73,1.36c-2.43,0-3.63-3.55-11.74-3.55c-0.89,0-5.67,0.24-5.97,0.07
		C661.64,498.07,672.64,493.27,676.1,493.27L676.1,493.27z M618.95,502.53c-1.07,0-1.2-0.47-1.67-1.25c-0.55-0.93-0.8-1.22-0.8-2.45
		c0-0.27,1.08-1.47,1.35-1.74c1.87-1.91,2.81-3.81,6.07-3.81c3.49,0,13.96,4.61,12.84,5.73c-0.29,0.28-5.25-0.02-6.2-0.02
		c-2.65,0-4.59,0.3-6.47,1.1c-0.27,0.11-0.37,0.18-0.62,0.31l-1.81,0.98C620.89,501.81,620.01,502.53,618.95,502.53L618.95,502.53z
		 M701.59,510.11c-4.32,0-2.47,0.03-6.31-0.64c-3.64-0.63-0.35-4.04,0.57-5.57c2.95-4.91,3.61-4.65,8.64-5.72
		c3.13-0.67,3.26-0.97,5.51-2.85c0.49-0.42,0.39-0.02,0.56-0.67c1.06,0.09,6.01,2.16,10.35,2.16c-0.31,1.12-3.23,2.84-4.42,3.62
		l-5.01,3.17c-2.95,1.97-1.45,1.02-3.13,2.9c-1.16,1.31-1.5,1.99-3.36,2.83C704.2,509.68,702.73,510.11,701.59,510.11L701.59,510.11
		z M579.1,496.82c1.78,0,3.84-0.44,5.4-0.79l4.95-1.38c0.12,0.44,0.58,0.72,1.15,1.17c0.53,0.42,0.72,0.65,1.29,1.02
		c1.98,1.33,4.73,1.45,7.42,2.16c2.96,0.79,4.26,4.29,5.7,6.19c0.94,1.24,2.69,3.7-0.15,4.24c-3.86,0.73-2.43,0.66-6.45,0.66
		c-3.08,0-4.81-1.38-6.61-3.44c-2.7-3.1-0.8-1.39-4.43-3.76c-1.72-1.13-6.4-3.98-7.31-4.89
		C579.21,497.15,579.55,497.68,579.1,496.82L579.1,496.82z M696.81,499.45c0,0-0.69,0.96-0.78,1.07l-1.41,2.61
		c-0.59,1.41-1.51,2.17-1.85,4.03c-0.02,0.07-0.13,0.71-0.15,0.76c-0.22,0.6-0.16,0.22-0.95,1.07c-0.46,0.49-0.08,0.31-0.59,0.49
		c0-5-0.76-6.15-0.76-10.81c0-3.14-0.55-3.48,0.64-4.76c0.36-0.38,0.71-0.61,1.2-0.81c1.02-0.41,2.38-0.09,2.86,0.4
		C695.4,493.88,696.81,498.64,696.81,499.45L696.81,499.45z M608.91,509.49c-0.56-0.2-0.24-0.21-0.97-0.89
		c-0.74-0.66-0.5-0.18-0.69-1.31c-0.3-1.63-0.56-1.65-1.17-2.86l-2.05-3.82c-0.11-0.17-0.84-1.16-0.84-1.16
		c0-0.82,1.41-5.57,1.78-5.95c0.49-0.49,1.86-0.8,2.86-0.4c0.44,0.17,0.79,0.39,1.12,0.73c1.3,1.3,0.72,1.69,0.72,4.83
		c0,1.42,0.04,2.46-0.17,3.68C609.14,504.49,608.91,506.96,608.91,509.49L608.91,509.49z M697.89,493.43c0-0.69,0.06-0.96,0.39-1.47
		c0.35-0.53,0.38-0.49,0.97-0.72c3.7-1.44,1.45-1.54,5.27,0.65c1.12,0.64,1.87,1.1,1.87,2.62c0,0.8-0.46,1.08-0.62,1.69
		c-2.69,0-1.5,0.64-3.63-0.21c-0.95-0.39-2.89-0.68-3.94-0.7C698.13,494.53,697.89,494.31,697.89,493.43L697.89,493.43z
		 M601.81,495.28c-1.7,0.03-3.19,0.38-4.58,0.99c-0.92,0.4-1.2-0.07-2.99-0.07c-0.16-0.62-1.17-1.31-0.19-3.27
		c0.3-0.57,0.03-0.25,0.54-0.54l2.15-1.24c2.12-1.43,0.71-1.17,3.91,0.05C602.9,492.06,601.92,493.92,601.81,495.28L601.81,495.28z
		 M685.37,493.73 M614.63,493.73 M685.37,493.73l-0.15-0.15L685.37,493.73z M614.78,493.58l-0.15,0.15L614.78,493.58z
		 M614.78,493.58c0.54-2.29,3.22-1.96,4.44-11.47c0.54-4.23-0.87-8.64,1.68-10.37c2.69-1.85,7.45-2.33,9.64-1.33l2.78,1.23
		c3.69,1.49,5.35,0.72,9.79-0.4c2.91-0.73,5.76-1.46,8.73-1.13c0.51,0.06,1,0.22,1.67,0.34c1.06,0.18,2.15,0.49,3.25,0.76l3.23,0.78
		c4.21,0.84,4.6,0.73,9.36-1.53c1.71-0.83,5.16-0.53,7.03-0.02c7.77,2.11,1.9,8.27,5.82,18.11c0.83,2.06,2.77,4.03,3.01,5.03
		c-0.68-0.36-1.09-0.84-1.76-1.33c-0.63-0.46-1.29-0.8-1.95-1.14c0.17,0.62,0.41,0.6,0.88,0.97c1.27,1.01,2.53,2.17,3.52,3.44
		c1.11,1.42,2.41,2.78,2.41,4.7c-0.37-0.23-0.46-0.41-0.84-0.7c-5.62-4.39-6.13-10.54-15.79-7.12c-3.13,1.11-6.21,2.64-9.18,4.12
		l-3.38,1.56c-1.49,0.61-4.41,2.03-4.8,3.54c-0.61-0.05-1.16-0.55-1.72-0.75c-0.83-0.31-1.24-0.39-2.14-0.17v0.46
		c1.52,0.36,2.01,1.18,2.62,2.48c-0.64-0.06-1.75-0.48-2,0.46c0.66,0.32,1.11,0.28,1.85,0.78c-0.38,0.79-0.51,2.52-0.66,3.66
		c-0.16,1.22-0.29,2.5-0.46,3.86c-1.08,8.2,3.86,13.8-2.27,13.49c-3.44-0.17-1.86-3.5-1.86-6.33c-0.62,0.05-0.52,0.18-0.73,0.64
		c-1.21,2.58-4.03,2.64-5.34,4.85c-1.65,2.79,1.32,5.34,4.44,4.28c0.49-0.16,0.67-0.24,0.72-0.83c-0.78-0.37-1.49-0.05-2.01-0.78
		c0.53-0.72,1.62-0.64,2.42-0.26c2.01,0.98,3.51,1.08,5.56,0.05c0.82-0.41,1.95-0.58,2.53,0.2c-0.39,0.52-1.11,0.62-2.01,0.62
		c0.02,0.9,0.28,0.91,1.21,1.1c4.28,0.93,6.76-3.95,0.94-6.81c-0.7-0.35-0.92-0.49-0.93-1.54c-0.04-4.51-1-9.1,1.55-12.98
		c1.75-2.68,4.19-4.05,7.07-5.3c0.6-0.27,1.13-0.47,1.81-0.66c1.83-0.51,6.35-1.63,8.45-1.16c1.48,0.34,3.61,1.64,4.85,2.56
		c2.02,1.47,3.16,1.6,5.29,0.21c0.98-0.64,1.82-1.73,2.65-2.29c-0.02,0.96-0.52,1.3-1.1,1.85l-0.64,0.58
		c-0.48,0.41-0.85,0.52-1.34,0.85c-1.9,1.23,1.23,1,3.03-0.53c0.83-0.71,1.53-1.34,2.21-2.12c0,1.46-0.85,1.36-1.4,2.16
		c0.36,1.34,1.55,0.69,1.55,2.78l-0.79-0.92c-0.49-0.52-0.73-0.79-1.68-0.79c0.12,1.52,3.04,1.95,2.15,10.19
		c-0.14,1.33-4.13,12.26-4.73,13.5L676,544.6c-0.31,0.65-0.56,1.1-0.88,1.75l-5.09,10.5c-0.55,1.27-0.94,2.35-1.55,3.55l-1.81,3.45
		c0.15-1.83,1.1-4.68,1.55-6.49l1.13-4.91c0.15-0.74,0.09-1.02-0.52-1.43c-3.12,5.92-4.54,15.19-7.28,19.44
		c-2.19,3.4-7.4,4.66-11.56,4.66c-3.17,0-6.55-0.96-8.66-2.01c-3.71-1.84-4.83-6.51-5.86-10.19c-1.01-3.61-2.61-8.66-4.32-11.9
		c-0.48,0.33-0.67,0.53-0.55,1.3c0.49,2.85,1.27,5.41,1.94,8.13c0.23,0.99,0.68,2.37,0.78,3.4c-0.72-0.83-1.26-2.37-1.75-3.35
		c-0.6-1.2-1.02-2.25-1.56-3.54l-5.91-12.16c-1.79-3.58-4.39-8.64-5.93-12.16l-4.97-12.94c-0.68-2.48-1.53-3.57-1.52-6.36
		c0.02-2.47,0.01-4.51,1.33-6.4c0.4-0.57,0.93-0.87,1-1.63c-1.29,0-1.76,0.88-2.48,1.7c0-2.09,1.19-1.45,1.55-2.78
		c-0.54-0.81-1.4-0.7-1.4-2.16l1.72,1.68c0.28,0.21,0.36,0.34,0.66,0.57c0.21,0.17,0.42,0.32,0.65,0.44
		c0.67,0.34,1.89,0.55,2.68,0.55v-0.31c-1.15-0.27-2.39-1.44-3.08-2.34c-0.38-0.5-0.48-0.5-0.48-1.38c1.73,1.16,2.28,2.48,4.72,3.32
		c0.43,0.14,1.12,0.11,1.51-0.02c0.87-0.3,2.92-1.89,4.02-2.48c3.31-1.76,4.13-1.46,8.05-0.73c3.19,0.58,6.63,1.72,8.93,4.04
		l2.4,2.4c0.35,0.38,0.4,0.55,0.76,0.93c0.97,0.99,1.69,2.14,2.48,3.24c0.32,0.45,0.04,0.27,0.5,0.43c0.45-0.68,0.31-1.87,0.32-2.78
		c0.01-2.92-1.06-5.17,0.45-6.33c0.44-0.34,0.76-0.31,0.94-0.78c-1.55,0-1.42-0.09-2.48,0.47c-0.09-0.41-0.14-0.46-0.31-0.78
		c0.5-0.58,1.06-0.84,1.08-1.69c-1.24,0-0.98,0.29-1.7,0.76c-1.09-2.06-6.16-3.84-8.23-4.89c-0.82-0.41-1.38-0.64-2.22-1.03
		c-2.24-1.04-4.5-2.17-6.86-3.02c-2.09-0.76-5.57-1.57-8.01-0.17c-2.53,1.45-3.26,3.04-5.06,4.82c-1.09,1.08-2.17,2.36-3.45,3.2
		c0-1.21,0.38-1.93,1-2.87c0.16-0.24,0.23-0.31,0.39-0.53c1.24-1.75,2.77-3.31,4.45-4.67c0.45-0.36,0.81-0.44,0.97-1.04
		C616.79,492.01,615.69,493.1,614.78,493.58L614.78,493.58z M739.29,475.35c0.14-0.62,0.33-1.09,0.53-1.79
		c0.19-0.67,0.36-1.07,0.61-1.69c1.08-2.61,3.82-4.27,5.69-6.05c0.37-0.36,0.97-0.87,1.36-1.12c1.36,0.65,1.68,0.32,2.49,3.06
		c0.41,1.38,0.59,3.16,0.59,4.98c0.01,1.98,0.27,2.1-0.34,4.9c-0.24,1.13-0.9,3.5-1.66,4.06c0.02-1.1,0.38-1.48,0-3.09h-0.93
		c-2.48,4.69-2.01,7.69-8.25,11.83c-5.28,3.51-9.29,4.69-16.15,4.69c-4.25,0-11.24-1.67-14.65-3.89c-0.5-0.33-1.17-0.91-1.73-1.05
		c0-1.6,0.99-3.58,1.97-4.67l1.62-1.63c0.87-0.69,3.35-2.26,4.55-1.69c0.6,0.28,1.14,0.73,2.26,1.14c3.94,1.42,9.66,1.19,13.56-0.08
		c3.71-1.2,3.76-1.12,6.4-3.17c0.67-0.53,2.32-2.46,2.78-3.09c0.25-0.35,1.23-2.16,1.23-2.63
		C741.22,473.13,739.62,475.12,739.29,475.35L739.29,475.35z M575.85,484.31c2.5,0,4.61-0.18,6.78-0.94
		c2.84-0.98,1.91-1.91,4.7-0.81c2.93,1.15,5.82,4.67,5.82,7.62c-0.37,0.09-2.11,1.31-3.35,1.91c-6.54,3.14-15.41,4.03-22.44,1.78
		c-4.13-1.33-9.38-4.71-11.79-8.29c-1.34-2-1.84-4.39-3.21-6.99h-0.93c-0.37,1.61-0.02,1.99,0,3.09c-1.21-0.9-2.12-5.84-2.11-7.57
		c0-1.41,0.32-4.98,0.67-6.24c0.78-2.83,1.21-2.55,2.52-3.18l3.74,3.2c1.72,1.72,2.89,2.12,3.89,5.54c0.2,0.7,0.42,1.3,0.56,1.92
		c-0.34-0.23-1.94-2.22-1.94-1c-0.01,1.42,2.38,3.95,3,4.73c1.83,2.29,4.79,3.3,7.41,4.16
		C570.63,483.72,573.94,484.31,575.85,484.31L575.85,484.31z M714.73,478.9c-0.87-0.22-1.36-1.25-2.01-1.69
		c0.38-1.65,1.15-3.22,1.53-4.96c0.24-1.11,0.36-3.99,2.17-4.47C718.11,470.97,717.4,477.11,714.73,478.9L714.73,478.9z
		 M582.65,472.26c0-1.67,0.34-3.37,0.93-4.48c0.63,0.16,1.33,1.03,1.59,1.65c0.24,0.57,0.42,2.02,0.55,2.68
		c0.39,1.85,1.16,3.39,1.56,5.09c-0.5,0.33-0.54,0.54-0.92,0.93c-0.27,0.28-0.68,0.66-1.09,0.76c-0.72-0.49-1.61-1.84-1.92-2.71
		C583.01,475.17,582.65,473.53,582.65,472.26L582.65,472.26z M687.38,459.9c0.93,0,2.4,0.73,3.05,1.27c0.67,0.56,3.36,4.4,3.74,5.07
		l2.91,5.91c0.46,1.12,0.32,0.99-1.24,2.54c-1.07,1.08-3.5,3.6-5.21,3.6c-1.9,0-2.27-1.65-3.57-3.39c-2.58-3.4-6.06-5.35-7.03-6.87
		c-0.88-1.39,0.61-2.78,1.9-4.31c0.69-0.83,1.38-1.84,2.2-2.43C684.73,460.86,686.44,459.9,687.38,459.9L687.38,459.9z
		 M609.37,478.29c-0.51,0-1.27-0.3-1.63-0.53c-1.03-0.68-4.75-3.86-5.03-4.68c-0.2-0.6,1.27-3.16,1.57-3.75
		c0.24-0.5,0.37-0.96,0.67-1.48c1.57-2.62,1.44-2.64,3.49-5.32l0.96-1.19c0.46-0.46,2.22-1.43,3.06-1.43c2.46,0,4.33,2.24,5.54,3.73
		c1.19,1.46,2.81,2.93,2.03,4.29c-0.68,1.19-3.7,3.31-4.82,4.45c-0.43,0.43-0.74,0.73-1.16,1.16l-1.98,2.65
		c-0.35,0.57-0.49,0.91-0.95,1.37C610.72,477.97,610.12,478.29,609.37,478.29L609.37,478.29z M719.2,448.79
		c0.69,0,4.04,4.08,4.59,4.82c3.95,5.3,8.08,13.76,8.08,20.51c0,1.61-1.11,3.06-2.01,4.17c-3.24,4.06-9.52,1.43-9.88,0
		c0.09-1.16,0.31-2.03,0.31-3.41c0-3.53-0.37-7.04-1.81-10.09l-1.45-2.57c-1.35-2.1-1.06-0.54-1.23-2.93
		c-0.05-0.68-0.23-0.92-0.1-1.83c0.06-0.47,0.08-1.22,0.17-1.84C716.17,453.53,717.04,448.79,719.2,448.79L719.2,448.79z
		 M579.72,473.04v1.85c0,1.38,0.21,2.24,0.31,3.41c-0.23,0.91-3.01,2.16-4.63,2.16c-2.07,0-3.87-0.43-5.25-2.16
		c-0.89-1.11-2.01-2.56-2.01-4.17c0-6.74,4.11-15.1,8.01-20.42c0.55-0.75,3.96-4.92,4.66-4.92c2.74,0,3.17,6.5,3.49,8.56
		c0.14,0.93,0.01,1.13-0.06,1.82c-0.28,2.61,0.31,0.72-1.19,2.98C581,465.19,579.72,469.3,579.72,473.04L579.72,473.04z
		 M697.89,468.24h-0.31c-0.18-0.75-0.7-1.44-1.08-2.01c0.39-1.67,2.34-3.93,3.44-5.06c0.42-0.43,0.54-0.7,1-1.16
		c1.22-1.21,1.93-2.01,3.59-2.89c-1.21,5.2,0.17,1.62-3.36,5.44C700.04,463.78,697.92,466.82,697.89,468.24L697.89,468.24z
		 M595.47,457.13c1.67,0.88,2.28,1.6,3.52,2.81l2.02,2.29c0.33,0.41,0.64,0.76,0.99,1.18c0.48,0.58,1.32,2.02,1.51,2.81
		c-0.39,0.57-0.91,1.25-1.08,2.01h-0.32c-0.02-0.87-0.9-2.36-1.3-3.03c-1.15-1.92-2.52-3.3-4.27-4.68
		C595.58,459.78,595.92,458.13,595.47,457.13L595.47,457.13z M651.39,464.23c0.16-0.7,0.24-1.82,0.32-2.62
		c0.23-2.79,0.68-4.79,1.26-7.54c0.34-1.58,0.69-3.18,1.35-4.52c0.24-0.49,1.84-3.7,2.17-3.7c3.2,0,0.52,11.12-0.11,12.71
		C655.2,461.56,654.23,462.33,651.39,464.23L651.39,464.23z M641.97,449.87c0-1.12-0.03-4.02,1.39-4.02c0.6,0,1.97,3,2.27,3.6
		c1.21,2.44,2.38,9.04,2.66,12.01c0.08,0.91,0.13,1.98,0.32,2.76l-2.98-2.27c-1.14-1.09-1.36-1.75-1.97-3.28
		C642.95,456.87,641.97,451.84,641.97,449.87L641.97,449.87z M665.6,465.78l2.44-2.67c2.6-2.92,2.75-4.21,4.14-6.05
		c2.73-3.6,3.38-6.11,6.05-9.25c0.37-0.44,0.11-0.23,0.59-0.64l2.29-1.56c2.25-1.35,3.65-1.31,6.12-1.31c0,3.06-1.11,6.49-1.99,8.68
		c-2.17,5.41-5,8.46-10.42,11.2C671.87,465.66,669.89,465.78,665.6,465.78L665.6,465.78z M612.77,444.3c3.37,0,4.5,0.12,7.55,2.19
		c3.07,2.09,4.61,6.73,7.45,10.47c1.55,2.06,2.43,4.56,5.36,7.46c0.47,0.47,0.93,0.84,1.27,1.36c-4.19,0-6.28-0.11-9.12-1.55
		c-2.48-1.25-4.51-2.5-6.37-4.44l-1.76-2.24C614.91,454.46,612.77,448.29,612.77,444.3L612.77,444.3z M694.02,443.53
		c-5.8-3.08-13.38-2.43-18.85,0.46c0-0.72,0.2-1.64,0.31-2.33c0.11-0.84,0.2-1.62,0.32-2.46c0.54-3.97,4.59-8.19,8.19-8.19
		c3.49,0,7.25,0.41,9.85,2.19c0.29,0.19,0.28,0.18,0.53,0.4c0.61,0.49,1.2,0.7,1.2,1.89C695.57,439.69,694.02,442.24,694.02,443.53
		L694.02,443.53z M604.43,435.65c0-1.35,0.49-1.47,1.04-1.9c2.91-2.33,6.57-2.73,10.55-2.73c1.44,0,3.03,0.85,3.94,1.48
		c2.03,1.41,3.87,4.05,4.23,6.58c0.12,0.86,0.2,1.65,0.33,2.46c0.1,0.75,0.32,1.7,0.32,2.46c-5.47-2.89-13.03-3.54-18.85-0.46
		C605.98,442.27,604.43,439.56,604.43,435.65L604.43,435.65z M642.43,434.57c0-4.7,0.5-7.39,5.87-7.11
		c2.29,0.13,0.45,0.24,3.25,0.01c1.71-0.14,4.37,0.06,5.14,1.64c1.49,3.07,0.92,9.16-0.22,11.92l-1.13,2.59
		c-1.59,2.65-2.68,4.59-3.66,7.76c-0.36,1.16-1.52,4.98-1.52,6.2h-0.32c0-0.92-0.43-2.19-0.64-3.06c-1.08-4.35-2.13-6.97-4.43-10.72
		C643.29,441.38,642.43,437.81,642.43,434.57L642.43,434.57z M740.52,426.23c-0.74,0-1.47,0.2-2.17,0.31
		c-0.74,0.1-1.45,0.22-2.16,0.31c-2.06,0.22-6.15,1.03-8.19,1.69c-2.51,0.82-3.15,0.05-3.84,1.1c0.9,1.34,4.56,0.51,8.89,3.92
		c1.76,1.4,2.07,1.87,1.76,3.18l-1.96-1.13c-0.81-0.41-1.25-0.75-2.12-1.12c-4.81-1.99-9.15-2.07-12.38,2.78
		c-5.69,8.55-4.03,23.25-5.56,33.06c-0.71,4.54-2.32,8.24-4.95,11.74c-2.86,3.77-6.2,7.18-11,8.3c-3.69,0.87-7.79,0.7-9.28-3.45
		c-2.01-5.57,1.53-4.35,3.66-4.95c3.86-1.07,7.85-6.37,9.85-9.62c2.09-3.43,4.53-9.94,5.27-14.2c0.73-4.21-0.04-8.76,0.67-12.3
		c1.53-7.63,0.55-8.03,1.08-11.89c0.33-2.34,4.14-5.66,6.04-6.94c3.48-2.33,5.35-2.34,6.59-3.15c0.69-0.46,1.23-0.81,2.12-1.11
		c3.96-1.37,12.64-0.64,16.57,0.69c0.41,0.14,0.84,0.36,1.25,0.45C740.67,424.67,740.74,425.73,740.52,426.23L740.52,426.23z
		 M559.33,423.91c0.76-0.17,1.52-0.58,2.44-0.81c4.62-1.12,13.28-2.07,17.42,0.71c1.66,1.12,5.2,1.16,10.15,6.08
		c0.74,0.73,2.35,2.87,2.55,3.94l0.19,6.29c0.5,5.82,1.23,4.18,1.23,11.75c0,5.21,0.15,6.49,1.68,11.29
		c1.66,5.23,3.69,9.71,7.24,13.77c5.58,6.37,7.41,4.67,9.29,5.37c3.25,1.22,0.44,5.87-0.21,6.57c-2.56,2.74-7.01,2.13-10.15,0.87
		c-2.69-1.09-6.11-3.81-7.81-6.1c-2.24-3.01-3.69-4.77-5.01-8.74c-3.61-10.88,0.02-27.14-6.63-37.54
		c-3.13-4.92-7.54-4.88-12.33-2.93c-1.47,0.6-2.8,1.56-4.19,2.29c-0.09-0.41-0.15-0.29-0.15-0.61c0-2.35,5.2-4.62,7.66-5.32
		c1.18-0.34,2.6-0.34,3.15-1.16c-0.69-1.05-1.34-0.29-3.83-1.1c-2.09-0.68-10.91-2.3-12.53-2.3
		C559.29,425.42,559.33,424.91,559.33,423.91L559.33,423.91z M655.41,465.15c3.25-4.85,4.58-9.1,5.58-15.11
		c0.49-2.9,0.66-6.25,0.92-9.43c0.22-2.74,0.92-6.51,1.77-8.73c1.02-2.62,1.76-4.34,3.67-6.68c0.44-0.54,0.67-0.82,1.14-1.33
		l1.92-1.95c0.02-0.02,0.05-0.05,0.07-0.07c0.03-0.03,0.06-0.06,0.08-0.08c0.02-0.02,0.05-0.06,0.07-0.08l0.48-0.45
		c3.73-3.4,11.99-6.45,17.04-6.45c3.11,0,5.55,0.82,7.74,1.68c1.33,0.52,3.18,1.84,4.06,2.89c0.44,0.52,0.81,0.81,1.19,1.29
		c0.68,0.85,1.27,1.79,1.9,2.73c3.19,4.82,2.87,10.46,2.87,16.29c0,4.21-1.15,7.06-1.22,10.5c-0.06,2.7-1.77,4.65-3.36,6.54
		c-0.87,1.02-1.97,1.99-3.02,2.85c-0.9,0.73-1.7,1.43-2.9,1.43c-0.76,0-2.63-1.04-2.63-1.69l1.22-9.44
		c0.12-0.93,0.74-2.19,0.48-2.76c-0.32,0.08-0.28,0.02-0.61,0.63c-1.29,2.33-2.79,4.12-2.79,7.24c0,0.85,0.3,0.84,0.32,1.7
		c-3.05,0.71-3.11,0.37-0.89-5.21c0.89-2.2,1.32-3.32,2.93-4.95c1.7-1.7,2.33-1.59,3.3-4.57c1.36-4.11,1.7-7.21,0.68-11.23
		c-0.86-3.33-2.8-6.18-6.24-7.05c-0.64-0.15-1.71-0.36-2.42-0.36c-2.06,0-5.83,1.26-7.17,2.09c-4.78,2.97-8.06,9.31-8.43,15.04
		c-0.09,1.39-0.42,2.87-0.46,4.33c-0.06,2.55-0.48,5.88-1.21,8.21c-0.21,0.66-0.32,1.08-0.59,1.72c-0.85,1.94-2.13,4.28-3.7,5.71
		c-1.05,0.96-2.91,2.35-4.12,3C659.72,465.2,659.18,465.15,655.41,465.15L655.41,465.15z M601.96,435.04c0,2.68,1.01,7.42,2.49,9.4
		c1.79,2.39,2.75,1.32,5,6.9c0.41,1.02,0.69,1.88,1.1,2.91c1.4,3.57-0.61,2.72-1.95,2.41c0.03-0.98,1.13-2.71-0.92-6.19l-1.72-3.06
		c-0.22-0.3,0.03-0.2-0.44-0.33c-0.29,0.59,0.34,1.76,0.46,2.63l0.79,6.32c0.41,2.86,0.9,3.43-0.5,4.3
		c-2.21,1.4-3.97-0.01-5.58-1.63c-1.07-1.08-1.08-0.84-1.95-1.92c-4.24-5.3-2.78-3.89-3.81-10.09c-1.02-6.17-0.84-5.94-0.84-11.98
		c0-5.68,1.4-9.92,4.76-14.07l2.29-2.34c0.61-0.59,2.1-1.5,2.96-1.84c5.57-2.2,10.68-2.22,16.35,0.06c0.63,0.25,1.2,0.46,1.74,0.73
		c0.59,0.29,1.21,0.5,1.81,0.82c0.58,0.32,1.09,0.62,1.66,0.97c2.29,1.39,3.96,2.59,5.69,4.65c1.54,1.84,1.76,1.8,3.35,4.54
		c6.09,10.56,0.8,23.32,9.89,36.91c-3.91,0-4.19,0.05-7.57-1.69c-1.1-0.57-3.08-2.02-4.06-2.9l-1.21-1.25
		c-0.15-0.19-0.31-0.45-0.44-0.64c-0.91-1.27-1.44-2.3-2.11-3.75c-0.7-1.5-1.23-3.9-1.49-5.62c-0.59-4-0.48-8.72-1.53-12.53
		c-1.29-4.66-3.6-8.62-7.6-11.25c-1-0.65-2-0.97-3.24-1.39c-7.76-2.61-12.08,1.54-13.19,8.64c-0.06,0.39-0.13,0.96-0.14,1.19
		L601.96,435.04z M682.44,394.72l-3.24-0.16c-1.4,0-6.9,1.2-9.45,1.35c-1.23,0.07-3.64-1.57-3.3-0.02c0.16,0.8,0.19-0.38,0.67,1.81
		c0.55,2.5,4.61,8.85,7.91,8.92c-0.07,0.9-0.36,0.76-1.39,0.76c-1.45,0-3.07-2.19-3.79-3.15c-6-8.04-10.11-0.7-10.11,3.62
		c0,3.27,0.47,4.74,2,7.27c0.72,1.2,1.77,2.41,2.95,3.22c0.84,0.59,0.76,0.52,0.76,2.02c0,3.48-2.81,8-5.41,9.73l-2.57-2.06
		c-0.29-0.28-0.38-0.51-0.71-0.84c-1.53-1.54-2.15-2.86-3.17-4.55c-3.01-4.96-2.5-9.78-2.5-15.27c0-2.91,2.67-7.48,4.12-9.93
		c0.34-0.58,0.58-0.84,0.94-1.37c0.99-1.45,2-2.76,3.41-3.71c3.3-2.23,2.55-2.81,6.12-3.46c3.56-0.63,10.26-0.56,13.54,0.53
		c0.99,0.33,2.06,1.36,2.95,2.15c0.53,0.47,0.39,0.46,1.05,0.81C683.01,393.25,682.8,394.03,682.44,394.72L682.44,394.72z
		 M616.79,392.4l1.9-1.5c0.67-0.66,1.1-1.12,2.1-1.46c3.24-1.07,14.14-1.69,16.89,0.76c0.88,0.78,1.66,1.38,2.59,2.04
		c1.61,1.14,1.15,0.69,2.46,2.34c2.46,3.11,6.2,9.32,6.2,12.8c0,6.52,0.54,8.32-1.97,14.26c-0.75,1.78-3.17,5.15-4.43,6.39
		c-0.28,0.28-0.5,0.38-0.84,0.7c-0.48,0.49-1.14,1.04-1.73,1.36c-3.71-2.49-6.22-9.05-5.27-11.15c0.16-0.37,1.25-1.11,1.66-1.43
		c1.79-1.41,3.92-5.67,3.92-8.59c0-3.04-0.75-6.64-3.49-7.94c-2.33-1.1-3.58,0.33-4.85,1.31l-1.69,1.85
		c-1.62,2.12-2.34,3.24-4.64,3.24c-0.5,0-0.57-0.31-0.61-0.76c3.22-0.07,6.28-5.15,7.52-7.77c0.5-1.06,0.37-1.46,0.56-2.07
		c0.18-0.56,0.28-0.24,0.48-0.79c0.62-1.65-2.14-0.07-3.15-0.07c-0.66-0.01-2.53-0.3-3.27-0.4c-3.14-0.45-4.38-0.96-7.54-0.96
		c-0.94,0-1.13,0.16-2.01,0.16C616.99,393.64,616.99,392.85,616.79,392.4L616.79,392.4z M626.52,607.27c0,0.82-0.16,0.88,0.32,1.23
		c0.48-0.36,0.54-2.68,2.77-4.17c0.97,0.51,1.11,0.91,2.77,0.76c3.17-0.29,6.16-0.74,9.22-1.75c3.56-1.16,7.14-2.11,10.08-4.44
		c4.12-3.26,0-1.23,7.23-3.59c3.51-1.15,7.48-2.1,10.7-3.97c0.76-0.44,1.54-0.97,2.33-1.39c0.49,0.91,0.74,1.65,1.15,2.71
		c0.4,1.05,0.49,2.16,0.86,3.16c0.73,2.02,4.1,6.45,5.56,8.34l1.38,1.56c0.31,0.34,0.26,0.18,0.56,0.52c1.33,1.42,1.92,1.9,4.4,1.32
		c0,1.13,0.2,1.69,0.44,2.5c0.34,1.18,0.34,1.25,0.34,2.75h0.31c0.16-0.66,0.02-1.07,0.47-1.4c0.13,0.52,0.15,0.29,0.38,0.87
		c0.24,0.63-0.19,0.49,0.55,0.68c0-2.51-1.45-3.19-1.23-5.71c3.58-0.08,2.49-6.63,2.46-8.8c-0.03-2.66,0.32-8.27-1.02-10.57
		c-0.94-1.61-2.57-2.6-3.45-4.27c0.27-0.39,0.83-1.07,1.19-1.43c1.36-1.34,2.7-3.07,3.59-4.75c1.7,0.4,2.57,0.79,4.79,0.78
		c8.84-0.03,12.24-4.35,17.34-5.06c1.68-0.22,3.75-0.07,5.3-0.41c1.63-0.37,4.12-2.33,4.46-2.3c0.43,0.03,1.78,0.7,2.1,0.39
		c0.3-0.3-0.22-0.47-0.47-0.81c0.68-0.01,1.37-0.08,1.54-0.76c-0.56-0.28-0.73,0.01-1.26,0.11c-0.57,0.1-1.23,0.04-1.82,0.04
		c-0.28-1.17-1.37-1.89-2.13-2.66c-0.78-0.79-1.44-1.78-2.35-2.45c-2.05-1.46-8.5-3.42-11.43-2.76c-1.37,0.3-2.16,1.03-3.16,1.78
		c-0.53,0.39-0.82,0.6-1.29,1.02c-2.78,2.44-2.93,1.57-5.45,1.36c0.04-0.52,0.15-0.7,0.31-1.08c0.36-0.87,0.18-1.29,1.17-1.61
		c0.47-0.14,0.76-0.24,1.15-0.39c3.27-1.31,6.35-3.12,9.16-5.21c0.59-0.45,1.07-0.9,1.65-1.29l2.32,0.78
		c0.37,0.1,2.25,0.53,2.45,0.63c0.4,0.21,1.26,1.62,3.43,2.75c4.68,2.45,9.95,0.19,13.32-3.19l2.25-2.38c1.6-2,3.51-3.76,4.76-6.06
		c0.52-0.97-0.06-1.7-0.25-2.57c1.34-0.03,2.57-0.79,3.28-1.51c0.69-0.7,1.94-1.58,1.97-2.81c-1,0.08-0.63,0.68-1.55,0.92
		c0.14-0.62,0.31-0.73,0.31-1.54h-0.46c-0.48,1.78-2.4,3.6-4.17,4.02c-0.11-0.49-0.86-1.64-1.2-1.89c-0.72-0.5-1.81-0.15-2.54-0.01
		c-4.12,0.86-8.93,0.46-12.5,3.11c-1.23,0.92-0.55,0.93-2.13,0.8c0.54-0.83,1.5-1.63,2.53-3.18c1.37-2.06,2.19-4.54,2.85-6.89
		c1.5-5.48,0.22-12.64,3.24-12.32c2.02,0.21,1.72,0.97,6.83,0.93c2.76-0.02,3.88-2.67,1.94-3.8c-0.91-0.54-1.78-0.72-2.65-1.21
		c-1.52-0.85-6.27-3.39-6.71-5.03c1.2,0,3.89-0.71,5.08-1.1c0.9-0.29,3.94-1.63,4.5-1.68c-0.14,0.64-0.25,1.4-0.39,2.11
		c-0.33,1.65,0.89,1.36,1.6-1.2c0.12-0.46,0.13-0.56,0.16-1.07c0.06-0.82-0.16-0.56,0.33-0.92c0,0.96-0.46,2.47-0.15,3.09
		c1.66-0.13,1.52-4.61,1.38-5.7c-0.39-3.02-5.48-3.25-7.76-3.52c-1.75-0.2-1.3-0.31-0.97-2.14c0.3-1.67,0.56-3.19,0.56-5.02
		c0-0.88-0.14-1.17-0.16-1.85c4.28-0.36,10.12-3.98,13.18-6.9c0.96-0.93,2.23-3.15,3.07-3.73c0.51-0.35,0.78-0.57,1.21-0.95
		c3.38-2.96,4.14-6.84,4.17-11.59c0.01-2.98-0.62-6.84-2.29-8.83c-0.68-0.82-0.87-0.18-1.12-1.2c-0.15-0.62-0.22-1.1-0.39-1.76
		c-0.4-1.58-0.74-3.13-0.2-4.71c0.03-0.09,0.36-0.85,0.36-0.89c0.21-1.42-1.35,1.63-1.49,1.91l-0.11,0.2c0-0.6-0.03-1.27-0.01-1.86
		c0.03-0.5,0.32-1.46,0.21-1.66c-0.64-1.21-1.9,2.42-0.85,5.54c0.48,1.44,0.57,1.46,0.95,3.07c-1.63,0.04-3.5,2.09-4.68,3.05
		c-4.49,3.62-4.51,4.16-5.95,9.81c-0.27,1.04-0.52,1.91-1.33,2.53c-0.61,0.47-1.79,1.27-2.57,1.45c0.07-0.83,0.36-1.79,0.51-2.73
		c0.55-3.31,0.46-5.77-0.18-9.02c-1.67-8.43-7.93-19.86-15.93-24.09l1.18-3.46c0.38-1.07,1.01-2.16,1.57-3.06
		c0.62-1,1.34-1.76,2.38-2.26c1.1-0.52,2.43-0.92,3.86-0.66c6.97,1.22,8.54,4.97,9.57,2.5c0.29-0.69,0.16-1.04,0.6-1.7
		c0.46-0.7,0.62-0.69,0.62-1.86c-0.58,0.4-0.48,0.6-0.93,0.93c-0.61-0.16-0.51-0.27-0.76-0.76c-0.3-0.57-0.25-0.43-0.72-0.83
		c-0.67-0.56-1.09-0.91-1.85-1.41c-1.46-0.95-3.99-1.93-4.23-2.09c1.76-0.15,5.48-1.7,7.72-1.7c0.39,0.57,0.45,0.19,0.47,1.08
		c1.39-0.38,0-1.26,1.54-1.39c-0.23,1.04-0.85,2.07-1.08,3.09c0.64-0.06,0.64-0.27,1.09-0.62c0.78-0.62,1.16-1.22,1.55-2.15
		c0.36-0.88,0.33-0.39,1.04-0.81c0.48-0.29,0.53-0.64,0.63-1.22c0.11-0.6,0.22-0.97,0.09-1.6c-0.73-3.55-11.11-3.95-14.59-3.95
		c-4.07,0-5.63,0.74-8.36,2.76c-0.54,0.4-0.56,0.33-1.27,0.57c-0.49,0.16-0.92,0.34-1.34,0.53c-2.96,1.33-5.94,3.4-7.91,5.98
		c-0.15,0.19-0.29,0.35-0.43,0.51c-0.62-2.71-0.37-2.96-1.65-5.92c-0.79-1.84-1.82-3.28-2.94-4.79l-1.53-1.71
		c-0.02-0.02-0.05-0.06-0.07-0.08l-1.18-1.13c-1.01-0.99-2.33-1.65-3.59-2.28c-3.01-1.5-5.96-1.84-9.58-1.85
		c-2.57-0.01-4.57,0.54-6.61,1.11c-2.75,0.76-5.61,2.05-7.98,3.61l-1.66,1.12c-0.22,0.16-0.4,0.33-0.59,0.49
		c-2.94-1.56-5.16-2.2-7.23-5.44c-3.43-5.37-0.98-13.99,3.13-11.17c1.31,0.91,2.22,1.92,3.22,3.12c0.84,1,2.22,2.61,3.65,2.67
		c1.64,0.08,2.64-0.54,2.7-1.97c0.03-0.79,0.02-0.43,0.4-1.12c-0.5-0.21-0.18-0.02-0.56-0.01c-0.01,0-0.04,0.01-0.06,0.01
		c0.22-0.43,0.42-0.8,0.46-1.4c-0.53,0.14-0.47,0.08-0.61,0.62c-0.7-0.51-2.77-4.31-2.81-5.51c-0.02-0.57,0.25-0.42,0.61-0.19
		c2.01,1.26,3.54,2.14,6.22,2.14c-0.17-0.62-0.35-0.44-1.08-0.61c0.48-0.34,1.33-0.47,2.01-0.47v-0.46c-2.65,0-3.5,0.99-5.76-1.04
		c-0.56-0.51-0.92-0.63-1.35-1.27c1.17-0.79,1.54-0.79,2.95-1.07c1.22-0.24,2.22-0.32,3.69-0.32c-0.36,0.53-1.01,0.73-1.08,1.54
		c0.66-0.05,0.97-0.34,1.39-0.62c-0.18,0.7-0.41,0.36-0.61,1.24c1.04-0.03,1.92-0.94,2.4-1.62c0.78-1.1,1.14-0.36,1.74-2.27
		c0.74-2.4-0.25-2.51-1.7-3.95c-2.03-2.01-4.2-2.45-7.45-2.91c-2.88-0.42-8.66-0.18-11.39,0.68c-1.37,0.43-4.22,3.04-5.78,4.25
		c-1.12,0.88-2.2,1.97-3.09,3.09c-0.67,0.87-1.14,1.49-1.71,2.46c-1.02,1.71-2.21,3.52-2.67,5.52h-0.32
		c-0.2-0.89-0.78-2.04-1.18-2.84c-1.27-2.56-2.32-3.88-4-6.04c-0.91-1.17-2.08-2.03-3.26-2.92c-0.85-0.62-1.46-1.24-2.25-1.92
		c-1.77-1.51-3.54-2.05-5.98-2.21c-2.22-0.15-5.41-0.43-7.84-0.11c-2.11,0.28-4.98,0.74-6.33,1.86c-0.82,0.67-1.34,1.24-2.08,1.93
		c-1.03,0.95-1.47,1.01-0.9,2.98c0.08,0.31,0.42,1.22,0.59,1.42c0.31,0.37,0.16,0.15,0.56,0.37c1.03,0.56,1.39,2.19,3.02,2.23
		c-0.2-0.89-0.43-0.54-0.61-1.24c0.42,0.29,0.72,0.57,1.39,0.62c-0.06-0.81-0.72-1.01-1.08-1.54c1.47,0,2.47,0.07,3.69,0.32
		c1.41,0.29,1.78,0.29,2.95,1.07c-0.55,0.83-1.79,1.77-2.72,2.22c-1.72,0.84-2.52,0.09-4.38,0.09v0.46c0.7,0,1.23,0.08,1.82,0.36
		l0.19,0.11c-0.73,0.17-0.92-0.01-1.08,0.61c4.22,0,5.08-1.79,6.49-2.29c0.5-0.18,0.37,0.33,0.3,0.72
		c-0.16,0.99-2.08,4.62-2.77,5.13c-0.14-0.54-0.08-0.48-0.61-0.62c0.05,0.6,0.23,0.97,0.46,1.4c-0.34,0.14-0.12-0.2-0.61,0
		c0.29,0.54,0.37,0.42,0.4,1.01c0.14,2.66,3.04,2.63,4.66,1.11c1.65-1.55,2.96-3.43,4.82-4.75c3.57-2.56,5.29,3.3,4.85,6.25
		c-0.72,4.96-2.71,6.8-6.68,9.23c-0.67,0.41-1.49,0.67-2.19,1.05l-1.05-0.81c-7.14-4.75-15.5-7.15-23.92-4.23
		c-1.35,0.47-2.67,1.07-3.8,1.9l-3.96,3.77c-1.12,1.53-2.14,2.97-2.95,4.77c-1.3,2.89-1.08,3.35-1.7,6.03l-1.66-1.9
		c-1.23-1.23-2.69-2.32-4.2-3.21c-0.79-0.47-1.46-0.91-2.38-1.34c-2.28-1.06-1.49-0.37-3.68-1.87c-2.22-1.52-3.97-2.04-7.23-2.04
		c-4.66,0-11.07,0.42-14,2.68c-0.99,0.76-1.2,3.24-0.12,4.03c0.79,0.56,0.65-0.19,1.09,0.75c0.23,0.51,0.26,0.81,0.58,1.27
		c0.23,0.35,0.6,0.66,0.93,0.93c0.48,0.38,0.56,0.63,1.17,0.68c-0.22-0.96-0.85-2.1-1.08-3.09c1.54,0.12,0.15,1.01,1.54,1.39
		c0.02-0.89,0.08-0.51,0.47-1.08c2.25,0,5.93,1.55,7.72,1.7c-0.03,0.02-0.08,0.01-0.1,0.05c-0.01,0.05-0.07,0.05-0.09,0.06
		c-0.02,0-0.3,0.12-0.33,0.13c-1.67,0.64-5.44,2.5-6.23,3.97c-0.31,0.57-0.15,0.7-0.82,0.88c-0.45-0.33-0.35-0.53-0.93-0.93
		c0,1.06,0.1,1.09,0.56,1.76c1.15,1.71,0.23,3.78,3.34,1.83c0.55-0.35,0.81-0.57,1.47-0.85c3.98-1.7,8.75-3.21,11.6,1.15
		c2.22,3.4,1.86,4.62,2.81,6.61c-7.97,4.21-14.22,15.52-15.9,23.96c-0.29,1.42-0.8,4.28-0.61,6l0.91,5.88
		c-0.76-0.17-1.92-0.96-2.48-1.39c-1.78-1.34-1.86-6.04-3.29-8.43c-1.03-1.7-2.49-2.71-3.98-3.91c-1.21-0.96-3.11-3.07-4.77-3.11
		c0.12-0.5,0.16-1.05,0.33-1.52c0.59-1.7,1.17-2.73,1.07-4.81c-0.03-0.58-0.58-3-1.23-2.36c-0.28,0.28,0.1,1.1,0.14,1.59
		c0.05,0.6,0.01,1.39,0.01,2.01l-0.72-1.45c-0.6-1.09-1.13-1.32-0.61-0.01c0.37,0.95,0.53,1.82,0.35,2.94
		c-0.21,1.29-0.59,2.43-0.84,3.64c-0.19,0.97-0.37,0.55-1,1.17c-1.75,1.72-2.45,6.09-2.44,8.84c0.02,3.19,0.25,5.51,1.24,7.72
		c0.79,1.76,2.5,3.88,4.05,4.92c0.83,0.55,2.13,2.7,3.01,3.63c1.68,1.75,4.42,3.61,6.59,4.69c2.07,1.03,4.33,2.16,6.74,2.37
		c-0.04,1.81-0.34,2.6,0.08,5.17c0.17,1.07,0.49,2,0.6,3.1c0.15,1.54-3.65,0.06-7.22,2.03c-0.74,0.41-1.61,1.25-1.77,2.09
		c-0.2,1.11-0.31,5.7,1.36,5.83c0.22-0.46,0.11-0.84-0.01-1.38c-0.13-0.6-0.14-0.92-0.14-1.71c0.55,0.4,0.29,1.23,0.49,1.99
		c0.08,0.28,0.53,1.54,0.69,1.78c0.53,0.78,1.12,0.48,0.91-0.58c-0.13-0.71-0.24-1.47-0.39-2.11c0.66,0.06,1.46,0.6,2.22,0.88
		c1.84,0.64,5.52,1.91,7.35,1.91c-0.45,1.67-5.11,4.09-6.61,4.98c-1.42,0.83-4.71,1.25-3.43,3.67c0.5,0.94,1.04,1.37,2.46,1.4
		c5,0.11,4.91-0.7,6.99-0.93c2.94-0.31,1.78,6.84,3.21,12.2c0.75,2.84,1.8,5.7,3.54,8.06c0.57,0.78,1.43,1.48,1.88,2.14
		c-1.57,0.12-0.82,0.19-2.05-0.73c-3.55-2.66-8.31-2.29-12.46-3.14c-0.76-0.15-1.78-0.53-2.57-0.08c-0.42,0.23-1.18,1.44-1.31,1.95
		c-1.77-0.42-3.69-2.23-4.17-4.02h-0.46c0,0.81,0.16,0.92,0.31,1.54c-0.92-0.23-0.55-0.84-1.54-0.92c0.04,1.87,3.4,4.28,5.25,4.32
		c-0.6,2.58-0.79,1.94,0.95,4.29l2.73,3.45c3.79,4.74,9.84,9.64,16.29,6.51c2.49-1.21,2.55-2.16,3.43-2.74
		c0.16-0.1,2.16-0.58,2.43-0.66l2.44-0.81c2.57,1.72,3.56,2.95,6.85,4.59c1.34,0.66,2.44,1.3,3.86,1.86c0.52,0.2,1.78,0.49,2.04,0.9
		c0.08,0.14,0.67,2.02,0.69,2.23c-2.57,0.21-2.45,1.09-5.27-1.21c-2.95-2.4-4.57-3.83-8.76-2.77c-3.34,0.85-6.09,1.35-8.4,3.64
		c-0.5,0.5-0.69,0.84-1.15,1.32c-0.79,0.82-1.93,1.53-2.2,2.74c-0.49,0-1.23,0.04-1.68-0.02c-0.63-0.08-0.83-0.42-1.41-0.13
		c0.17,0.65,0.87,0.75,1.54,0.76c-0.27,0.38-0.65,0.38-0.51,0.74c0.18,0.44,1.65-0.23,2.04-0.31c0.75-0.12,1.96,1.6,4.44,2.25
		c3.46,0.92,4.83-0.51,9.48,1.78c1.18,0.59,2.55,1.25,3.84,1.72c3.12,1.12,5.73,1.99,9.28,1.99c2.36,0,3.15-0.36,4.95-0.78
		c0.56,1.07,1.46,2.2,2.22,3.18c0.45,0.57,0.79,1,1.3,1.49c0.4,0.4,0.97,1.07,1.26,1.51c-0.48,0.92-1.11,1.39-1.71,2.14
		c-1.49,1.85-2.32,2.54-2.59,5.14c-0.06,0.6,0.02,1.18-0.06,1.79l-0.27,9.46c0.04,0.78,0.19,2.81,0.42,3.45
		c0.32,0.89,1.08,1.62,2.21,1.65c0.06,0.78,0.13,0.47-0.02,1.37c-0.1,0.63-0.19,0.92-0.45,1.42c-0.54,1.07-0.78,1.31-0.78,2.93
		c0.74-0.19,0.31-0.05,0.55-0.68c0.22-0.58,0.24-0.35,0.38-0.87c0.45,0.33,0.31,0.73,0.47,1.4h0.31c0-1.43-0.01-1.54,0.31-2.63
		c0.25-0.86,0.47-1.49,0.47-2.62c3.22,0.74,3.39-0.42,4.63-1.54c1.82-1.63,5.77-7.32,6.88-9.34c0.75-1.36,1.04-3.97,1.92-5.8
		c0.83,0.19,1.49,0.42,2.48,0.46c0.53,0.03,0.95,0.11,1.23,0.11c0.34,0,0.76-0.11,1.39-0.11c-2.42,3.61-1.49,2.11-3.2,6.08
		c-0.47,1.1-0.94,2.12-1.43,3.19c-0.64,1.39-0.72,2.09,0.78,3.09c-0.68,1.02-4.3,3.38-3.41,5.25c0.4-0.29,0.52-0.78,0.78-1.23
		c0.01-0.03,0.04-0.07,0.05-0.1L626.52,607.27z"/>
</g>
</svg>
